<?xml version="1.0" encoding="utf-8"?>
<!-- Generator: Adobe Illustrator 19.1.0, SVG Export Plug-In . SVG Version: 6.00 Build 0)  -->
<svg version="1.1" id="Layer_1" xmlns="http://www.w3.org/2000/svg" xmlns:xlink="http://www.w3.org/1999/xlink" x="0px" y="0px"
	 viewBox="0 0 113.729 71.453" style="enable-background:new 0 0 113.729 71.453;" xml:space="preserve">
<style type="text/css">
	.st0{fill:#100D0F;}
</style>
<g>
	<path class="st0" d="M1.966,21.416c-1.576-2.26-4.054-7.914,1.306-12.168C7.18,6.148,13.297,2.448,18.048,0.838
		c3.938-1.334,6.803-1.095,7.919,0.865c0,0,2.458,3.432,1.719,6.296c-0.14,0.542-1.84,3.517-1.84,3.517l-7.412,14.122l9.04-11.741
		c0,0,0.391-0.689,1.41-0.858c1.615-0.268,4.55,1.906,2.875,3.027c-0.245,0.164-0.576,0.311-0.986,0.478
		c-0.7-0.19-15.655,18.621-17.041,20.32c-0.463,0.568-0.763,1.322-0.786,1.77c-0.056,1.097-0.528,3.315-3.639,2.094
		c0,0-3.187-1.73-0.869-5.431c0,0,9.011-17.31,10.431-20.715c1.394-3.343,4.838-8.662,2.076-10.141c0,0-0.676-0.529-3.67,1.538
		c0.025-0.018-12.382,8.343-13.473,10.285c0,0-1.087,1.063-0.876,2.23c0.198,1.099,1.302,1.406,1.09,2.377
		C3.728,22.195,2.252,21.826,1.966,21.416z"/>
	<path class="st0" d="M40.669,31.344c-0.491,0.788-1.3,1.8-1.568,2.093c-0.816,0.89-2.177,2.979,0.154,5.315
		c1.935,1.939,3.137,2.091,3.888,1.899c0.262-0.067,0.373-0.084,0.291-0.701c-0.059-0.446-0.38-1.304-0.051-2.252
		c0.707-2.036,12.358-22.413,13.202-23.766c0.581-0.931,1.185-3.037-1.396-5.519C52.61,5.93,51.66,5.145,52.305,9.116
		c-0.024,0.279,0.546,2.07-2.631,7.18c-0.097,0.156-1.244,2.184-2.384,4.207C46.356,22.161,41.428,30.127,40.669,31.344z"/>
	<path class="st0" d="M38.221,25.664c0,0-4.467-4.083-9.106,2.062s-4.573,10.871-3.103,11.619c1.47,0.748,5.73-1.253,7.745-8.542
		c0,0-2.864-3.339-0.296-4.81c0,0,1.567-1.714,3.534,0.507c0,0,1.386,1.229,1.02,3.348c0,0,2.458,1.016,3.729,1.284
		s-1.343,3.141-2.614,2.873l-2.213-1.072c0,0-5.783,10.855-11.832,7.487c0,0-7.054-3.54,1.625-15.635c0,0,4.007-5.212,8.948-4.414
		C35.657,20.37,40.114,21.522,38.221,25.664z"/>
	<path class="st0" d="M70.445,44.02c-0.72-0.835-2.567-1.203-2.964-1.282c0.299-1.189,2.992-14.436,4.175-15.731
		c1.183-1.299-1.607-4.152-2.79-4.668c0,0-0.843-0.691-0.76,1.207c0,0-4.899-7.515-15.211,2.682c0,0-8.283,8.294-3.214,13.307
		c0,0,3.55,5.009,12.173-2.852c0,0,4.392-4.377,5.239-5.691c0,0-1.307,5.119-3.389,11.363c-1.611-0.256-12.827-0.102-20.103,1.761
		c-7.136,1.827-12.751,6.422-14.439,8.427c-3.17,3.766-3.817,7.28-3.789,8.678c0.031,1.602,0.737,4.769,3.03,6.725
		c2.294,1.956,5.196,2.984,7.128,3.184c1.257,0.13,5.262,1.266,12.404-1.687c3.302-1.365,8.311-5.627,10.462-8.375
		c5.08-6.49,8.202-14.878,8.21-14.902c3.596,0.598,5.502,1.672,6.062,2.692C72.67,48.858,72.012,45.836,70.445,44.02z
		 M63.124,29.344c-2.072,2.7-4.673,4.783-6.321,5.967c-2.942,2.115-5.276,2.179-5.598,1.544c-0.516-1.788,0.143-3.405,1.298-5.179
		c0.944-1.451,2.482-3.295,2.482-3.295c5.318-6.773,10.212-4.718,10.469-3.843C65.758,26.395,64.404,27.676,63.124,29.344z
		 M50.376,60.29c-5.485,4.345-12.382,4.63-15.331,3.999c-2.636-0.563-4.095-3.056-4.093-5.351c0.002-2.58,3.047-5.4,4.523-6.605
		c4.126-3.368,10.544-5.283,12.899-5.737c4.334-0.837,13.348-1.192,13.348-1.192S56.916,55.11,50.376,60.29z"/>
	<g>
		<path class="st0" d="M99.556,42.111l-4.276,3.668c-0.07,0.06-0.219,0.102-0.376,0.121c-0.157,0.019-0.599-0.08-0.689-0.112
			c-3.061-1.083-8.093-3.821-7.412-10.414c-0.452-0.17-0.415-0.156-0.867-0.326c-3.408,3.882-7.952,7.549-11.167,6.486
			c-4.276-1.414-4.685-5.547-2.977-9.691c2.482-6.023,9.361-12.125,15.247-10.178c3.034,1.004,4.058,2.946,3.766,5.141
			c0.152,0.182,0.245,0.292,0.397,0.474c0.326,0.058,0.643,0.138,0.895,0.221c0.558,0.184,0.889,0.404,0.731,0.789
			c-1.515,3.678-2.059,8.983-0.593,12.002c0.247,0.509,0.716,1.139,1.366,1.696c1.106,0.947,2.707,1.275,4.18,0.916
			C98.398,42.752,99.06,42.508,99.556,42.111 M87.968,28.213c0.069-0.117,0.075-0.257,0.018-0.379
			c-0.602-1.287-1.364-2.035-2.249-2.328c-3.84-1.271-9.578,5.647-11.146,9.454c-0.814,1.976-0.77,3.578,0.469,3.988
			C80.057,40.601,85.76,31.944,87.968,28.213z"/>
	</g>
	<path class="st0" d="M101.817,28.856c0.03-0.119,0.039-0.155,0.069-0.274c0.783-0.35,3.6-1.458,6.469-0.71
		c0.02,0.008,0.036,0.015,0.055,0.023c0.328,0.198,3.693,2.436,1.54,9.712c-0.038,0.13-0.659,1.6-1.446,2.566
		c-2.154,2.642-6.814,6.382-13.797,5.725c-0.061-0.006-0.237-0.064-0.218-0.121c0.041-0.124,0.199-0.32,0.286-0.374
		c0.728-0.448,2.199-1.33,4.193-2.817c0.389-0.29,1.89-1.386,2.763-2.77c0.347-0.549,1.38-2.55,1.539-4.636
		C103.464,32.648,102.682,29.937,101.817,28.856z"/>
	<path class="st0" d="M96.328,47.436c0,0,19.096-0.424,12.98-7.049c0,0-0.001-0.001-0.001-0.001
		c0.014-0.006,2.605-1.084,4.316-0.953c0.002,0,0.003,0.001,0.002,0.003l-0.37,2.635c0,0.002-0.002,0.006-0.003,0.004
		c-0.046-0.08-0.909-1.553-1.818-0.318c0,0,4.585,2.345,0.791,5.213C112.226,46.97,113.413,47.688,96.328,47.436z"/>
	<g>
		<path class="st0" d="M97.045,56.38c-2.276,0-3.701-1.455-3.701-3.758c0-2.061,1.323-3.768,3.78-3.768
			c1.569,0,3.151,0.788,3.308,2.323h-1.054c-0.235-0.939-1.088-1.505-2.276-1.505c-1.896,0-2.692,1.424-2.692,2.939
			c0,1.829,1.021,2.95,2.681,2.95c1.357,0,2.188-0.728,2.355-2.071h1.054C100.32,55.319,99.018,56.38,97.045,56.38z"/>
		<path class="st0" d="M107.373,49.844h-2.681v6.364h-1.055v-6.364h-2.681v-0.829h6.416V49.844z"/>
		<path class="st0" d="M113.529,49.844h-4.194v2.243h3.701v0.798h-3.701v3.323h-1.054v-7.192h5.248V49.844z"/>
	</g>
	<path class="st0" d="M101.081,40.601"/>
	<path class="st0" d="M97.746,42.586"/>
	<path class="st0" d="M99.146,42.111"/>
	<path class="st0" d="M99.146,42.111"/>
</g>
</svg>
